<?xml version="1.0" encoding="UTF-8"?>
<svg xmlns="http://www.w3.org/2000/svg" baseProfile="tiny" version="1.2" viewBox="0 0 1024 1024">
  <!-- Generator: Adobe Illustrator 29.6.1, SVG Export Plug-In . SVG Version: 2.1.1 Build 9)  -->
  <g id="echoLure">
    <g>
      <path d="M215.7,881.6v-4.5c4.9,0,8.2-.4,9.8-1.1.7-.3,1.1-.7,1.4-1.3.5-.9.8-3.4,1-7.4.3-6.2.4-11.6.4-16.1v-36.1c0-6.4,0-12.7-.2-18.8-.1-4.5-.5-7.1-1-8-.5-.8-1.4-1.4-2.6-1.8-1.2-.4-4.6-.6-10.2-.7v-4.5l20.1.4,21.3-.4c10.2-.1,17.6-.2,22.3-.2s9.1.3,13.2.8c-.8,2.7-1.3,5-1.6,7,0,.4-.5,5.3-1.3,14.7h-4.5c0-4.8-.3-9.2-.9-13.1-2.6-1.1-5.4-1.8-8.6-2.2-5.3-.7-10.6-1-15.8-1s-3.7,0-7.6.3c-3.9.2-6.7.4-8.4.5-.2,5.2-.3,10.1-.4,14.7l-.3,23.9c5.5.3,10.6.4,15.2.4s10.4-.3,14.3-.8c1.5-.2,2.5-.6,2.9-1.1.4-.6.8-2.5,1.1-5.8l.4-4.9h4.2v1.3l-.4,14.7.4,16.5h-4.9l-.2-4.8c0-3.5-.4-5.7-1-6.5-.5-.8-1.6-1.4-3.1-1.8-2.7-.6-7.9-.8-15.6-.8s-7.6.1-13.4.4c-.2,4.7-.4,11.7-.4,21s.1,15.3.4,19.9c6.8.5,14.4.8,22.8.8s10.2-.2,12.8-.6c2.5-.4,4.9-1,7.1-1.9.6-1.5,1.1-3.4,1.7-5.9,1-4.2,1.7-7.4,2-9.5h4.7c-1.2,9.5-1.8,17.4-1.8,23.7-4.1.6-9,.9-14.8.9l-42.2-.6c-.6,0-6.8.2-18.5.6Z" fill="#6d6d6d"/>
      <path d="M356.8,873.5l-2.8,4.7c-3.3,1.7-6.5,3-9.6,3.8s-6.8,1.2-10.8,1.2c-9.9,0-17.8-3-23.6-8.9s-8.8-14.1-8.8-24.6.8-10.3,2.4-14.4c1.6-4.1,3.5-7.2,5.8-9.4,1.6-1.6,4.5-3.6,8.9-6,4.4-2.5,7.4-4.1,9.2-4.8,3.2-1.4,7-2,11.5-2s8.1.4,11.5,1.3c2.2.6,4.3,1.5,6.5,2.8-.6,3.6-1,6.4-1.2,8.2-.2,1.9-.5,5.2-.9,10.1h-4c-.3-4.6-.6-7.4-.8-8.6-.2-.7-.6-1.3-1.3-1.9-1.7-1.3-3.9-2.5-6.5-3.4-2.7-1-5.6-1.4-8.7-1.4s-7.4.8-10.3,2.4c-2.9,1.6-5.1,4.2-6.8,7.7-1.6,3.5-2.4,7.9-2.4,13.1s1.1,12.2,3.4,17.4c2.3,5.2,5.3,9,9.2,11.3,3.9,2.4,8.2,3.6,13,3.6s4.7-.3,7-.9c2.3-.6,5.2-1.7,8.8-3.4l1.5,1.8Z" fill="#6d6d6d"/>
      <path d="M364.3,881.6v-4h6.6c1-.1,1.8-.3,2.4-.6.5-.3,1-.7,1.2-1.2.5-.9.8-2.6.9-5,0-.6.2-7.4.5-20.3v-36.6c0-7.9-.1-16-.4-24.4-.2-5.7-.4-8.8-.8-9.5-.2-.5-.6-.8-1.1-1-.7-.3-4-.5-9.8-.5v-4.2c10.6-1.3,18-3,22.2-5,.6-.3,1.1-.4,1.4-.4s.6.1.8.3c.2.2.3.5.3.9s0,.8-.1,1.4v2.3c-.3,8.4-.4,15.6-.5,21.6v11c-.1,0-.1,20.6-.1,20.6.7-.5,2.5-2.1,5.6-4.8,3.1-2.7,4.9-4.3,5.4-4.8.9-.8,1.6-1.4,2.1-1.7.9-.5,2.2-.9,4-1.4,2.4-.7,4.8-1,7.1-1,4.3,0,8.4,1,12.3,3.1s6.6,4.6,8.1,7.7c1.5,3.1,2.3,7.7,2.3,13.8v12.5l.2,9.8c.1,6.1.2,9.5.2,10.3,0,2.3.4,3.9.8,5,.2.5.5.9.8,1.2.4.3.9.5,1.7.7.3,0,2.7.1,7.4.2v4c-5.4-.2-9.3-.4-11.7-.4s-6.3.1-12.8.4c.7-7,1-13.8,1-20.4v-17.5c0-5.5-.4-9.4-1.2-11.8-.8-2.4-2.4-4.6-4.9-6.5-2.5-1.9-5.8-2.9-9.9-2.9s-4.9.4-6.9,1.1c-2,.8-3.9,1.9-5.6,3.4s-3.1,3.1-4.3,4.9c-.6.8-.9,1.9-1.1,3.1-.2,1.2-.3,3.6-.3,7.3v8.3c.2,12.2.4,18.8.4,19.8,0,2.4.4,4.1.8,5.2.2.5.5.9.8,1.2.4.3.9.5,1.7.7.3,0,2.9.1,7.8.2v4c-8.4-.3-14.2-.5-17.4-.5s-8.8.2-18.2.5Z" fill="#6d6d6d"/>
      <path d="M452.4,849.1c0-10.6,3.4-19.2,10.1-25.8,6.7-6.7,15.3-10,25.8-10s18,3.1,24.2,9.3,9.3,14.3,9.3,24.1-1.6,13.2-4.8,18.9c-3.2,5.7-7.7,10.2-13.6,13.4-5.8,3.2-12.3,4.8-19.3,4.8s-10.1-.9-13.9-2.8c-3.8-1.8-6.9-4.1-9.2-6.9-2.4-2.8-4.1-5.6-5.4-8.6-2.2-5.1-3.3-10.6-3.3-16.5ZM465.8,843.9c0,5.8,1,11.7,2.9,17.7,1.9,6,4.7,10.4,8.4,13.1,3.7,2.8,7.6,4.1,11.9,4.1s10-2.2,13.7-6.5c3.7-4.3,5.5-11,5.5-20s-1.1-14-3.3-19.4c-2.2-5.4-5-9.3-8.4-11.5-3.4-2.2-7.1-3.4-11.2-3.4s-10.5,2.1-14.1,6.3c-3.6,4.2-5.4,10.7-5.4,19.6Z" fill="#6d6d6d"/>
      <path d="M535.6,881.6v-3.7c2.9-1.4,4.8-2.4,5.6-3.3.5-.4.8-1,1-1.6.4-1.3.7-4.1.8-8.5.2-6.5.3-10.3.3-11.5v-38c0-6.4,0-12.7-.2-18.8-.1-4.5-.5-7.1-1-8-.5-.8-1.4-1.4-2.6-1.8-1.2-.4-4.6-.6-10.2-.7v-4.5c11.5.4,18.6.6,21.3.6s9.8-.2,20.3-.6v4.5c-5.6,0-9,.3-10.2.7-1.2.4-2,1-2.5,1.7-.6.9-.9,3.2-1.1,6.9,0,.9-.1,7.6-.3,20.1v47.5c0,4.9,0,9,.3,12.1,5.4.3,10.7.5,16,.5,13.3,0,22.6-.8,27.9-2.5.6-1.4,1.2-3,1.6-4.9l2.8-11.7h4.7c-1,7-2,15.3-3,24.7-1.9.4-3.5.6-4.6.7-2.5.1-6.2.2-11.3.2l-41.8-.6c-4.5,0-9.1.2-13.8.6Z" fill="#6d6d6d"/>
      <path d="M691.4,877.6v4c-6.2-.3-10.8-.5-14-.5s-7,.2-10.6.5c.3-3.8.5-8.1.6-12.9-2.8,2.3-6.2,5.3-10.1,9.3s-1.8,1.6-2.6,2c-2,1.1-4.1,1.9-6.1,2.4-2,.5-4.5.7-7.3.7s-7-.5-9.6-1.6c-2.6-1-4.8-2.6-6.6-4.7-1.4-1.6-2.4-3.6-3.1-6-.7-2.5-1.1-5.5-1.1-8.9s0-3.2.2-4.7c.1-1.5.2-2.9.2-4.3v-12.1c0-1.2,0-4.3-.2-9.3,0-3.1-.3-5.1-.6-6.1-.2-.5-.5-.8-.9-1.1-.7-.5-2-.7-3.7-.7-2.6,0-4.6,0-6.1,0v-4c10.1-1.1,17.5-2.9,22.1-5.4.8-.4,1.3-.6,1.8-.6s.6.1.8.4c.2.2.3.6.3,1.1s0,.8,0,1.4c-.2,1.5-.4,4.4-.5,8.7-.3,7.9-.4,13.1-.4,15.8v13.8c0,5.8.4,9.8,1.2,12.1.8,2.3,2.3,4.2,4.5,5.6,2.2,1.4,5,2.1,8.3,2.1s4.5-.4,6.8-1.2,4.3-1.9,6-3.4c1.3-1.1,2.7-2.5,4-4.4,1-1.4,1.7-2.4,2-3.1.3-.7.5-1.8.6-3.2.2-4.1.4-8.3.4-12.4v-5.9c0-1.2,0-4.3-.2-9.3,0-3.1-.3-5.1-.6-6.1-.2-.5-.5-.8-.9-1.1-.7-.5-2-.7-3.7-.7-2.6,0-4.6,0-6.1,0v-4c10.1-1.1,17.5-2.9,22.1-5.4.8-.4,1.3-.6,1.8-.6s.6.1.8.4c.2.2.3.6.3,1.1s0,.8,0,1.4c-.1,1.5-.3,4.5-.5,9-.3,7.7-.4,12.9-.4,15.6v19.5c.3,5.7.4,9,.4,10,0,2.4.3,4.1.8,5.2.2.4.5.8.9,1.1.4.3.9.6,1.7.7.3,0,2.9.1,7.8.2Z" fill="#6d6d6d"/>
      <path d="M698.4,881.6v-4c5.3,0,8.2-.2,8.6-.3.8-.1,1.4-.4,1.8-.7.4-.3.7-.7,1-1.3.5-1.1.8-2.8.8-5.1.3-12.6.4-19.2.4-19.7v-8.4c0-3.8,0-7.8-.2-12.2,0-2.8-.3-4.4-.6-4.9-.3-.5-.8-.9-1.6-1.2-.8-.3-3.9-.4-9.2-.3v-4c9.5-1.3,16.5-3,20.9-5.2.9-.5,1.6-.7,1.9-.7s.6.1.8.4c.2.2.3.6.3,1.1s0,.7,0,1.1c-.2,2.9-.4,7.3-.4,13.4,2.1-2.4,4.1-4.9,5.9-7.3s3.1-4,3.9-4.7c1.4-1.2,3-2.2,4.9-2.9,1.8-.7,3.7-1.1,5.7-1.1s3.9.4,5.9,1.3l.4,1c-.7,6.3-1.1,11.8-1.2,16.5h-3.2c-1.1-2.3-2.3-3.9-3.8-4.9-1.4-1-3.2-1.6-5.4-1.6-3.6,0-6.7,1.5-9.3,4.5-2.5,3-3.8,7.5-3.8,13.5v7.3c0,3.1.1,8.8.4,17,0,2.9.2,4.8.4,5.6.2.8.4,1.4.7,1.7.3.4.8.6,1.5.9,1.4.4,5.2.8,11.5,1.3v4c-8.3-.3-15.4-.5-21.2-.5s-11.9.2-17.5.5Z" fill="#6d6d6d"/>
      <path d="M812.1,870.7l-2.3,5.1c-3.3,2-5.6,3.4-7.1,4-2.2,1-4.7,1.8-7.6,2.5-2.9.7-5.9,1-9,1-6.2,0-11.8-1.3-16.9-3.9-5-2.6-8.9-6.5-11.7-11.6s-4.2-11.2-4.2-18.1.7-10.3,2.2-14.7c1.5-4.4,3.2-7.6,5.1-9.6,1.4-1.5,3.5-3.2,6.4-5.2,2.9-2,5.7-3.5,8.6-4.6,3.7-1.6,7.8-2.3,12.1-2.3s10,1.2,14.3,3.6c4.3,2.4,7.4,5.7,9.4,9.8,2,4.1,3,8.8,3,14.1s0,2.9-.3,4.8c-3.4.7-6.4,1.1-9.1,1.3-5.1.4-10.2.6-15.3.6h-22.7c0,6.7,1.3,12.2,3.5,16.4s5.3,7.2,9.3,9.2c3.9,2,8,3,12.3,3s5.7-.5,8.6-1.4c2.9-.9,6.4-2.6,10.6-5.1l1.1,1.2ZM766.8,841.7c1.3.1,3.8.3,7.5.4,7,.2,11.9.4,14.5.4,6.3,0,10.4-.1,12.4-.4,0-1.1,0-2,0-2.6,0-7.4-1.5-12.9-4.5-16.4s-7.1-5.2-12.1-5.2-9.6,1.9-12.9,5.7c-3.3,3.8-4.9,9.8-5,18Z" fill="#6d6d6d"/>
    </g>
  </g>
  <g id="compasIconRB">
    <path d="M711.4,532.1h1.9c3.4,2.1,7.3,5.3,11.5,9.7,4.2,4.4,6.3,7.3,6.3,8.9s-.2.8-.6,1.4c-.4.6-.8.9-1.2.9-.6,0-1.2-.5-2-1.4-1.2-1.4-3.2-3.4-6.1-6-2.9-2.6-5.5-4.6-7.6-5.9l.8,43.1c0,2.6-.7,4.6-2.2,6.1-1.5,1.5-3.8,2.9-6.8,4.1-3,1.3-6.1,1.9-9.1,1.9s-7.1-1-9.5-3c-2.4-2-3.5-4.4-3.5-7.2s1.7-6.2,5.1-8.7c3.4-2.5,7.3-3.8,11.7-3.8s8.2,1,12.4,2.9l-1-43Z" fill="#8a8a8a" stroke="#908b84" stroke-miterlimit="10"/>
  </g>
  <g id="compasIconLB">
    <path d="M348.5,589.4c-1.2-4-3-7.7-5.3-11.2-2.3-3.5-7.5-9.8-15.7-19-3.8-4.3-6.5-7.8-8-10.4-1.5-2.6-2.2-5.2-2.2-8s1.4-6.6,4.2-9.1c2.8-2.5,6.3-3.7,10.4-3.7,7.8,0,13.3,4.1,16.5,12.3,1.3-4.1,3.4-7.2,6.4-9.3,3-2,6.3-3.1,9.8-3.1s7.6,1.2,10.4,3.7c2.8,2.4,4.2,5.3,4.2,8.6s-.8,5.8-2.3,8.9c-1.5,3.1-4.8,7.4-9.9,12.8-10.8,11.7-17,20.9-18.7,27.4Z" fill="#8a8a8a" stroke="#908b84" stroke-miterlimit="10"/>
  </g>
  <g id="compasIconLT">
    <polygon points="385.9 332.7 371.1 335.4 361.1 332.7 344.9 370.4 362 370.4 347 398.5 383.8 360.8 361.7 360.8 385.9 332.7" fill="#8a8a8a" stroke="#908b84" stroke-miterlimit="10"/>
  </g>
  <g id="compasIconRT">
    <path d="M716.1,340.7c-12.2,16.6-19.1,31.9-19.1,44.5s8.6,19.3,19.1,19.3,19.1-8.7,19.1-19.3-7.2-28.1-19.1-44.5Z" fill="#8a8a8a" stroke="#908b84" stroke-miterlimit="10"/>
  </g>
  <g id="compasSouthB">
    <rect x="511.5" y="714.9" width="1" height="33.5" fill="#908b84"/>
  </g>
  <g id="compasSouthM">
    <rect x="511" y="610" width="2" height="63.6" fill="#908b84"/>
  </g>
  <g id="compasSouthT">
    <rect x="511" y="503.3" width="2" height="61.4" fill="#908b84"/>
  </g>
  <g id="compasNorthB">
    <line x1="513" y1="435.3" x2="513" y2="328.2" fill="none" stroke="#908b84" stroke-miterlimit="10" stroke-width="2"/>
  </g>
  <g id="compasNorthM">
    <rect x="511" y="179.7" width="2" height="72.6" fill="#908b84"/>
  </g>
  <g id="compasNorthT">
    <rect x="512.5" y="64" width="1" height="34.6" fill="#908b84"/>
  </g>
  <g id="compasEast">
    <rect x="585.3" y="465.6" width="228.8" height="2" fill="#908b84"/>
  </g>
  <g id="compasWest">
    <rect x="214.3" y="465.6" width="228.8" height="2" fill="#908b84"/>
  </g>
  <g id="compassCircle">
    <g>
      <path d="M601.7,445.4c.5-.1,1-.2,1.6-.2s.3,0,.4,0c-1.8-6.9-4.4-13.4-7.6-19.6-.5.5-1,.9-1.6,1.2,3.1,5.8,5.5,12,7.2,18.5Z" fill="#908b84"/>
      <path d="M606.1,457.9c-.6.3-1.2.4-2,.5.4,3.3.6,6.6.6,10,0,47-36.3,85.8-82.6,90.2.3.6.4,1.3.5,2,47.2-4.7,84.1-44.2,84.1-92.2s-.2-7-.6-10.5Z" fill="#908b84"/>
      <path d="M425.4,500.2c3.6,9.9,8.9,18.9,15.5,26.9.2-.7.5-1.4.9-2.1-6.1-7.6-11.1-16.2-14.5-25.5-.6.3-1.2.5-1.9.6Z" fill="#908b84"/>
      <path d="M513.2,375.7c-51.6,0-93.5,41.6-93.5,92.7s.7,13,2,19.1c.6-.2,1.2-.4,2-.4-1.3-6-2-12.3-2-18.7,0-50,41-90.7,91.5-90.7s57.7,15,74.3,37.9c.5-.4,1.1-.7,1.8-1-17-23.5-44.8-38.9-76.1-38.9Z" fill="#908b84"/>
    </g>
  </g>
  <g id="echoSignal">
    <path d="M616.9,164.5c-24.3-12.6-46.7-22.8-74.5-18.9-24.3,2.9-48.3,13.6-66.6,29.5-18.4,16-31.8,39.6-16.2,62.3,21.7,32.4,64,39.2,99.7,48.5,22,5.4,44.9,12.3,65.6,22.6,18.4,9.2,36.5,23.4,43,44.3,7,21.3,0,45.1-13.5,61.9-15.2,19.5-38.4,31.8-60.3,41.2-25.6,10.9-51.8,18.8-78,27.7-15,5-30.7,9.7-44.6,15.9-10.3,4.7-27.3,13.3-28.6,25.1-.4,3.2-.2,5.8,1.5,8.5,3.3,4.9,8.3,7.8,14.2,11.2,4.3,2.4,9.1,4.7,14,7.1,27.7,13.1,53.5,29,70.3,55.8,21.9,35.6-3.6,64.3-28.4,88.5,0,0-2.8-2.3-2.8-2.3,6.1-9.1,12.7-17.8,17.7-27,10.5-18.6,12.6-36.7-2.3-52.7-6.7-7.5-14.4-14-22.8-19.5-17.9-11.9-37.2-18-57.3-27.3-5.3-2.6-10.8-5.5-16.4-9.9-9.6-7.4-15.9-19.2-15.7-31.5-.3-11.8,4.5-23.5,12.5-31.9,20.4-21.2,52-29.9,78.4-39.6,4.3-1.7,11-4.1,15.5-5.6,20.1-7.1,40.3-14.4,59.5-23,17.5-8.1,34.5-16.6,46.2-31.7,8.9-12,12.3-26.5,2.3-37.9-11-12.3-32.2-18.8-48.6-23.7-43.4-11.8-93.1-13.8-129.7-43.8-48.3-39.4-48.8-97.9,2.3-135.3,30.3-21.6,69.6-31.2,106.3-23.5,22.5,4.8,41.4,19.2,57.6,34.6,0,0-.3.4-.3.4h0Z" fill="#2d84c8"/>
  </g>
</svg>